<svg id="Layer_1" data-name="Layer 1" xmlns="http://www.w3.org/2000/svg" viewBox="0 0 60 60"><defs><style>.cls-1{fill:#fff;fill-rule:evenodd;}</style></defs><title>github</title><path class="cls-1" d="M30,.8a29.94,29.94,0,0,0-9.46,58.35c1.49.27,2-.65,2-1.44s0-2.6,0-5.1c-8.33,1.81-10.09-4-10.09-4-1.36-3.46-3.32-4.38-3.32-4.38-2.72-1.86.21-1.82.21-1.82a6.28,6.28,0,0,1,4.58,3.09c2.67,4.57,7,3.25,8.71,2.48a6.43,6.43,0,0,1,1.91-4c-6.65-.75-13.64-3.32-13.64-14.8a11.55,11.55,0,0,1,3.08-8,10.73,10.73,0,0,1,.29-7.92s2.52-.81,8.24,3.07a28.31,28.31,0,0,1,15,0c5.71-3.88,8.22-3.07,8.22-3.07a10.7,10.7,0,0,1,.3,7.92,11.55,11.55,0,0,1,3.08,8c0,11.51-7,14-13.67,14.78,1.07.92,2,2.75,2,5.54,0,4,0,7.23,0,8.22,0,.8.54,1.73,2.06,1.44A29.95,29.95,0,0,0,30,.8Z"/></svg>