<svg height="2500" viewBox="7.025 7.025 497.951 497.95" width="2500" xmlns="http://www.w3.org/2000/svg" xmlns:xlink="http://www.w3.org/1999/xlink"><linearGradient id="a" gradientUnits="userSpaceOnUse" x1="79.948" x2="432.052" y1="79.948" y2="432.052"><stop offset="0" stop-color="#2489be"/><stop offset="1" stop-color="#0575b3"/></linearGradient><path d="m256 7.025c-137.506 0-248.975 111.469-248.975 248.975s111.469 248.975 248.975 248.975 248.976-111.469 248.976-248.975c-.001-137.506-111.472-248.975-248.976-248.975zm-66.427 369.343h-54.665v-176.607h54.665zm-27.593-199.735c-17.853 0-32.326-14.591-32.326-32.587 0-17.998 14.475-32.588 32.326-32.588s32.324 14.59 32.324 32.588c.001 17.997-14.472 32.587-32.324 32.587zm232.45 199.735h-54.4v-92.704c0-25.426-9.658-39.619-29.763-39.619-21.881 0-33.312 14.782-33.312 39.619v92.704h-52.43v-176.607h52.43v23.786s15.771-29.173 53.219-29.173c37.449 0 64.257 22.866 64.257 70.169z" fill="url(#a)"/></svg>