<?xml version="1.0" encoding="utf-8"?>
<!-- Generator: Adobe Illustrator 23.0.1, SVG Export Plug-In . SVG Version: 6.00 Build 0)  -->
<svg version="1.1" id="Layer_1" xmlns="http://www.w3.org/2000/svg" xmlns:xlink="http://www.w3.org/1999/xlink" x="0px" y="0px"
	 viewBox="0 0 60 60" style="enable-background:new 0 0 60 60;" xml:space="preserve">
<style type="text/css">
	.st0{fill:#FFFFFF;}
</style>
<path class="st0" d="M51.9,3.3H8.1c-2.7,0-4.8,2.2-4.8,4.8v43.7c0,2.7,2.2,4.8,4.8,4.8h43.7c2.7,0,4.8-2.2,4.8-4.8V8.1
	C56.7,5.5,54.5,3.3,51.9,3.3z M19.8,49.4c0,0.8-0.6,1.4-1.4,1.4h-6c-0.8,0-1.4-0.6-1.4-1.4V24.3c0-0.8,0.6-1.4,1.4-1.4h6
	c0.8,0,1.4,0.6,1.4,1.4V49.4z M15.4,20.6c-3.1,0-5.7-2.5-5.7-5.7s2.5-5.7,5.7-5.7s5.7,2.5,5.7,5.7S18.6,20.6,15.4,20.6z M51.1,49.5
	c0,0.7-0.6,1.3-1.3,1.3h-6.4c-0.7,0-1.3-0.6-1.3-1.3V37.8c0-1.8,0.5-7.7-4.6-7.7c-4,0-4.8,4.1-4.9,5.9v13.6c0,0.7-0.6,1.3-1.3,1.3
	h-6.2c-0.7,0-1.3-0.6-1.3-1.3V24.2c0-0.7,0.6-1.3,1.3-1.3h6.2c0.7,0,1.3,0.6,1.3,1.3v2.2c1.5-2.2,3.6-3.9,8.3-3.9
	c10.3,0,10.2,9.6,10.2,14.9L51.1,49.5L51.1,49.5z"/>
</svg>
