<?xml version="1.0" encoding="utf-8"?>
<!-- Generator: Adobe Illustrator 23.0.1, SVG Export Plug-In . SVG Version: 6.00 Build 0)  -->
<svg version="1.1" id="Layer_1" xmlns="http://www.w3.org/2000/svg" xmlns:xlink="http://www.w3.org/1999/xlink" x="0px" y="0px"
	 viewBox="0 0 60 60" style="enable-background:new 0 0 60 60;" xml:space="preserve">
<style type="text/css">
	.st0{fill-rule:evenodd;clip-rule:evenodd;fill:#FFFFFF;}
</style>
<g>
	<path class="st0" d="M30.3,42c-2.2,0-4.5-0.9-6.2-2.6l-5.9-5.9L1.8,49.9C2.2,52,4,53.6,6.2,53.6h48.2c2.2,0,4.1-1.6,4.4-3.8
		L42.5,33.5l-5.9,5.9C34.8,41.2,32.6,42,30.3,42z"/>
	<path class="st0" d="M54.4,6.3H6.2C4.3,6.3,2.7,7.5,2,9.2l16.1,16.1l2,2l2,2l5.9,5.9c0.6,0.6,1.3,0.9,2.1,0.9
		c0.8,0,1.6-0.3,2.1-0.9l5.9-5.9l2-2l2-2L58.6,9.2C58,7.5,56.3,6.3,54.4,6.3z"/>
	<polygon class="st0" points="14.1,29.4 1.8,17.1 1.8,41.8 	"/>
	<polygon class="st0" points="46.5,29.4 58.9,41.8 58.9,17.1 	"/>
</g>
</svg>
